<?xml version="1.0" encoding="UTF-8"?>
<!DOCTYPE svg PUBLIC "-//W3C//DTD SVG 1.1//EN" "http://www.w3.org/Graphics/SVG/1.1/DTD/svg11.dtd">
<svg xmlns="http://www.w3.org/2000/svg" version="1.1" width="3333px" height="3333px" style="shape-rendering:geometricPrecision; text-rendering:geometricPrecision; image-rendering:optimizeQuality; fill-rule:evenodd; clip-rule:evenodd" xmlns:xlink="http://www.w3.org/1999/xlink">
<g><path style="opacity:1" fill="#16425b" d="M 78.5,-0.5 C 1136.83,-0.5 2195.17,-0.5 3253.5,-0.5C 3296.83,8.83333 3323.17,35.1667 3332.5,78.5C 3332.5,1136.83 3332.5,2195.17 3332.5,3253.5C 3323.17,3296.83 3296.83,3323.17 3253.5,3332.5C 2195.17,3332.5 1136.83,3332.5 78.5,3332.5C 35.1667,3323.17 8.83333,3296.83 -0.5,3253.5C -0.5,2407.83 -0.5,1562.17 -0.5,716.5C 8.2326,674.931 33.2326,648.765 74.5,638C 120.639,631.488 155.139,648.321 178,688.5C 183.027,698.943 186.027,709.943 187,721.5C 187.5,1529.17 187.667,2336.83 187.5,3144.5C 1173.17,3144.5 2158.83,3144.5 3144.5,3144.5C 3144.5,2158.83 3144.5,1173.17 3144.5,187.5C 2124.5,187.667 1104.5,187.5 84.5,187C 37.9185,179.916 9.58519,153.416 -0.5,107.5C -0.5,97.8333 -0.5,88.1667 -0.5,78.5C 8.83333,35.1667 35.1667,8.83333 78.5,-0.5 Z M 1019.5,857.5 C 1095.86,853.759 1154.03,884.092 1194,948.5C 1224.57,1006.16 1225.24,1064.16 1196,1122.5C 1155.08,1191.05 1094.58,1222.22 1014.5,1216C 953.606,1206.4 908.106,1174.9 878,1121.5C 852.94,1070.39 850.94,1018.39 872,965.5C 902.15,903.51 951.317,867.51 1019.5,857.5 Z M 1658.5,1485.5 C 1722.27,1485.3 1773.44,1510.3 1812,1560.5C 1847.58,1612.59 1855.25,1668.59 1835,1728.5C 1816.97,1774.86 1785.47,1808.7 1740.5,1830C 1669.41,1858.65 1604.41,1848.65 1545.5,1800C 1489.26,1744.56 1473.1,1679.06 1497,1603.5C 1527.31,1532.03 1581.14,1492.69 1658.5,1485.5 Z M 2282.5,2114.5 C 2358.74,2113.18 2415.9,2145.18 2454,2210.5C 2479.06,2261.61 2481.06,2313.61 2460,2366.5C 2430.07,2428.56 2380.9,2464.4 2312.5,2474C 2236.11,2478.23 2177.95,2448.06 2138,2383.5C 2107.43,2325.84 2106.76,2267.84 2136,2209.5C 2168.67,2153.02 2217.5,2121.35 2282.5,2114.5 Z"/></g>
<g><path style="opacity:1" fill="#16425b" d="M 466.5,385.5 C 1266.17,385.333 2065.83,385.5 2865.5,386C 2900.52,392.023 2925.35,411.19 2940,443.5C 2943.02,450.903 2945.02,458.569 2946,466.5C 2946.67,1266.17 2946.67,2065.83 2946,2865.5C 2939.98,2900.52 2920.81,2925.35 2888.5,2940C 2881.1,2943.02 2873.43,2945.02 2865.5,2946C 2065.83,2946.67 1266.17,2946.67 466.5,2946C 431.482,2939.98 406.648,2920.81 392,2888.5C 388.977,2881.1 386.977,2873.43 386,2865.5C 385.333,2065.83 385.333,1266.17 386,466.5C 392.023,431.482 411.19,406.648 443.5,392C 451.092,389.074 458.759,386.907 466.5,385.5 Z M 1019.5,857.5 C 951.317,867.51 902.15,903.51 872,965.5C 850.94,1018.39 852.94,1070.39 878,1121.5C 908.106,1174.9 953.606,1206.4 1014.5,1216C 1094.58,1222.22 1155.08,1191.05 1196,1122.5C 1225.24,1064.16 1224.57,1006.16 1194,948.5C 1154.03,884.092 1095.86,853.759 1019.5,857.5 Z M 1658.5,1485.5 C 1581.14,1492.69 1527.31,1532.03 1497,1603.5C 1473.1,1679.06 1489.26,1744.56 1545.5,1800C 1604.41,1848.65 1669.41,1858.65 1740.5,1830C 1785.47,1808.7 1816.97,1774.86 1835,1728.5C 1855.25,1668.59 1847.58,1612.59 1812,1560.5C 1773.44,1510.3 1722.27,1485.3 1658.5,1485.5 Z M 2282.5,2114.5 C 2217.5,2121.35 2168.67,2153.02 2136,2209.5C 2106.76,2267.84 2107.43,2325.84 2138,2383.5C 2177.95,2448.06 2236.11,2478.23 2312.5,2474C 2380.9,2464.4 2430.07,2428.56 2460,2366.5C 2481.06,2313.61 2479.06,2261.61 2454,2210.5C 2415.9,2145.18 2358.74,2113.18 2282.5,2114.5 Z"/></g>
<g><path style="opacity:1" fill="#81c3d6" d="M 573.5,573.5 C 1301.83,573.5 2030.17,573.5 2758.5,573.5C 2758.5,1301.83 2758.5,2030.17 2758.5,2758.5C 2030.17,2758.5 1301.83,2758.5 573.5,2758.5C 573.5,2030.17 573.5,1301.83 573.5,573.5 Z M 1019.5,857.5 C 951.317,867.51 902.15,903.51 872,965.5C 850.94,1018.39 852.94,1070.39 878,1121.5C 908.106,1174.9 953.606,1206.4 1014.5,1216C 1094.58,1222.22 1155.08,1191.05 1196,1122.5C 1225.24,1064.16 1224.57,1006.16 1194,948.5C 1154.03,884.092 1095.86,853.759 1019.5,857.5 Z M 1658.5,1485.5 C 1581.14,1492.69 1527.31,1532.03 1497,1603.5C 1473.1,1679.06 1489.26,1744.56 1545.5,1800C 1604.41,1848.65 1669.41,1858.65 1740.5,1830C 1785.47,1808.7 1816.97,1774.86 1835,1728.5C 1855.25,1668.59 1847.58,1612.59 1812,1560.5C 1773.44,1510.3 1722.27,1485.3 1658.5,1485.5 Z M 2282.5,2114.5 C 2217.5,2121.35 2168.67,2153.02 2136,2209.5C 2106.76,2267.84 2107.43,2325.84 2138,2383.5C 2177.95,2448.06 2236.11,2478.23 2312.5,2474C 2380.9,2464.4 2430.07,2428.56 2460,2366.5C 2481.06,2313.61 2479.06,2261.61 2454,2210.5C 2415.9,2145.18 2358.74,2113.18 2282.5,2114.5 Z"/></g>
<g><path style="opacity:1" fill="#16425b" d="M 1031.5,668.5 C 1166.27,670.784 1271.43,727.117 1347,837.5C 1409.75,939.941 1422.08,1048.27 1384,1162.5C 1342.83,1269 1269,1342.83 1162.5,1384C 1051.9,1421.04 946.235,1410.37 845.5,1352C 732.233,1278.36 673.233,1173.52 668.5,1037.5C 670.873,926.614 712.873,834.114 794.5,760C 862.577,701.644 941.577,671.144 1031.5,668.5 Z M 1019.5,857.5 C 951.317,867.51 902.15,903.51 872,965.5C 850.94,1018.39 852.94,1070.39 878,1121.5C 908.106,1174.9 953.606,1206.4 1014.5,1216C 1094.58,1222.22 1155.08,1191.05 1196,1122.5C 1225.24,1064.16 1224.57,1006.16 1194,948.5C 1154.03,884.092 1095.86,853.759 1019.5,857.5 Z"/></g>
<g><path style="opacity:1" fill="#16425b" d="M 1649.5,1297.5 C 1780.66,1296 1885.82,1347 1965,1450.5C 2028.77,1542.7 2048.44,1643.7 2024,1753.5C 1989.21,1880.29 1910.37,1967.13 1787.5,2014C 1681.24,2048.57 1579.24,2038.91 1481.5,1985C 1380.42,1923.43 1320.25,1833.93 1301,1716.5C 1286.91,1588.41 1326.41,1480.24 1419.5,1392C 1485.23,1334.32 1561.9,1302.82 1649.5,1297.5 Z M 1658.5,1485.5 C 1581.14,1492.69 1527.31,1532.03 1497,1603.5C 1473.1,1679.06 1489.26,1744.56 1545.5,1800C 1604.41,1848.65 1669.41,1858.65 1740.5,1830C 1785.47,1808.7 1816.97,1774.86 1835,1728.5C 1855.25,1668.59 1847.58,1612.59 1812,1560.5C 1773.44,1510.3 1722.27,1485.3 1658.5,1485.5 Z"/></g>
<g><path style="opacity:1" fill="#16425b" d="M 2272.5,1926.5 C 2390.07,1922.61 2488.9,1963.28 2569,2048.5C 2648.32,2140.74 2677.32,2247.07 2656,2367.5C 2626.55,2495.28 2551.71,2585.11 2431.5,2637C 2333.08,2674.05 2235.75,2671.39 2139.5,2629C 2035.18,2577.67 1967.68,2495.84 1937,2383.5C 1909.96,2260.35 1936.29,2150.35 2016,2053.5C 2084.45,1977.19 2169.95,1934.86 2272.5,1926.5 Z M 2282.5,2114.5 C 2217.5,2121.35 2168.67,2153.02 2136,2209.5C 2106.76,2267.84 2107.43,2325.84 2138,2383.5C 2177.95,2448.06 2236.11,2478.23 2312.5,2474C 2380.9,2464.4 2430.07,2428.56 2460,2366.5C 2481.06,2313.61 2479.06,2261.61 2454,2210.5C 2415.9,2145.18 2358.74,2113.18 2282.5,2114.5 Z"/></g>
</svg>
